<?xml version="1.0" encoding="utf-8"?>
<!-- Generator: Adobe Illustrator 24.2.1, SVG Export Plug-In . SVG Version: 6.00 Build 0)  -->
<svg version="1.1" xmlns="http://www.w3.org/2000/svg" xmlns:xlink="http://www.w3.org/1999/xlink" x="0px" y="0px"
	 viewBox="0 0 32 32" style="enable-background:new 0 0 32 32;" xml:space="preserve">
<style type="text/css">
	.st0{display:none;}
	.st1{display:inline;}
	.st2{fill:none;stroke:#FFFFFF;stroke-width:3;stroke-miterlimit:10;}
</style>
<g id="圖層_1" class="st0">
	<g class="st1">
		<rect x="-2" y="-1" width="36" height="35"/>
	</g>
</g>
<g id="圖層_2">
	<path class="st2" d="M16,2.3c-3.8,0-4.3,0-5.8,0.1C8.7,2.5,7.7,2.7,6.8,3C5.9,3.4,5.1,3.9,4.3,4.7S3.1,6.2,2.7,7.1
		C2.4,8,2.2,9,2.1,10.5C2,12,2,12.5,2,16.3c0,3.8,0,4.3,0.1,5.8c0.1,1.5,0.3,2.5,0.7,3.4c0.4,0.9,0.8,1.7,1.6,2.5
		c0.8,0.8,1.6,1.3,2.5,1.6c0.9,0.3,1.9,0.6,3.4,0.7c1.5,0.1,2,0.1,5.8,0.1s4.3,0,5.8-0.1c1.5-0.1,2.5-0.3,3.4-0.7
		c0.9-0.4,1.7-0.8,2.5-1.6c0.8-0.8,1.3-1.6,1.6-2.5c0.3-0.9,0.6-1.9,0.7-3.4c0.1-1.5,0.1-2,0.1-5.8c0-3.8,0-4.3-0.1-5.8
		C29.8,9,29.6,8,29.3,7.1c-0.4-0.9-0.8-1.7-1.6-2.5c-0.8-0.8-1.6-1.3-2.5-1.6c-0.9-0.3-1.9-0.6-3.4-0.7C20.3,2.3,19.8,2.3,16,2.3z"
		/>
	<circle class="st2" cx="16" cy="16.3" r="7.2"/>
</g>
</svg>
