<svg id="圖層_1" data-name="圖層 1" xmlns="http://www.w3.org/2000/svg" width="138.389" height="32" viewBox="0 0 138.389 32"><title>logotype-unipapa</title><path d="M31.691,6.015c-5.587,0-8.936,4.446-8.936,9.93v7.807h0v.011a2.115,2.115,0,1,0,4.23,0v-.011h0V16c0-3.936,2.108-5.7,4.709-5.7s4.7,2.04,4.7,5.7v7.748h0v.011a2.115,2.115,0,1,0,4.23,0v-.011h0V15.945C40.627,10.461,37.513,6.015,31.691,6.015Z"/><path d="M48.162,8.115a2.106,2.106,0,0,0-4.211-.032v15.65a2.105,2.105,0,0,0,4.209.03Z"/><path d="M93.653,15.877A9.5,9.5,0,0,0,90.732,8.9a9.869,9.869,0,0,0-13.967.017,9.528,9.528,0,0,0-2.9,6.992,9.528,9.528,0,0,0,2.9,6.992,9.528,9.528,0,0,0,6.992,2.9,9.667,9.667,0,0,0,5.687-1.791h0a2.115,2.115,0,0,0,4.206-.237Zm-9.9,5.686a5.69,5.69,0,0,1-5.687-5.686,5.687,5.687,0,1,1,11.374,0,5.661,5.661,0,0,1-5.687,5.686Z"/><path d="M138.389,15.877a9.5,9.5,0,0,0-2.92-6.975,9.871,9.871,0,0,0-13.968.017,9.531,9.531,0,0,0-2.9,6.992,9.531,9.531,0,0,0,2.9,6.992,9.532,9.532,0,0,0,6.992,2.9,9.667,9.667,0,0,0,5.687-1.791h0a2.116,2.116,0,0,0,4.207-.237Zm-9.9,5.686a5.688,5.688,0,0,1-5.686-5.686,5.687,5.687,0,1,1,11.373,0,5.659,5.659,0,0,1-5.687,5.686Z"/><path d="M68.363,8.919A9.869,9.869,0,0,0,54.4,8.9a9.493,9.493,0,0,0-2.921,6.975l0,14.053a2.1,2.1,0,0,0,4.209-.014l0-5.9a9.667,9.667,0,0,0,5.687,1.791,9.53,9.53,0,0,0,6.992-2.9,9.528,9.528,0,0,0,2.9-6.992A9.528,9.528,0,0,0,68.363,8.919ZM65.391,19.9a5.678,5.678,0,0,1-9.707-4.02,5.633,5.633,0,0,1,5.687-5.687,5.661,5.661,0,0,1,5.686,5.687A5.478,5.478,0,0,1,65.391,19.9Z"/><path d="M113.335,8.908a9.871,9.871,0,0,0-13.968-.017,9.5,9.5,0,0,0-2.92,6.975l0,14.053a2.1,2.1,0,0,0,4.209-.014l0-5.9a9.665,9.665,0,0,0,5.687,1.791,9.532,9.532,0,0,0,6.992-2.9,9.531,9.531,0,0,0,2.9-6.992A9.533,9.533,0,0,0,113.335,8.908Zm-2.972,10.978a5.678,5.678,0,0,1-9.707-4.02,5.633,5.633,0,0,1,5.687-5.687,5.661,5.661,0,0,1,5.686,5.687A5.478,5.478,0,0,1,110.363,19.886Z"/><path d="M17.738,4.792a2.1,2.1,0,0,0-2.1,2.1v9.18a5.491,5.491,0,0,1-1.674,3.977,5.78,5.78,0,0,1-8.085,0,5.464,5.464,0,0,1-1.65-3.977V6.9A2.115,2.115,0,0,0,0,6.9l0,9.115a9.525,9.525,0,0,0,2.93,6.978,9.523,9.523,0,0,0,6.978,2.889,9.523,9.523,0,0,0,6.978-2.889,9.525,9.525,0,0,0,2.93-6.978V6.9A2.082,2.082,0,0,0,17.738,4.792Z"/><circle cx="46.055" cy="2.339" r="2.339"/></svg>