<?xml version="1.0" encoding="utf-8"?>
<!-- Generator: Adobe Illustrator 24.2.1, SVG Export Plug-In . SVG Version: 6.00 Build 0)  -->
<svg version="1.1" id="圖層_1" xmlns="http://www.w3.org/2000/svg" xmlns:xlink="http://www.w3.org/1999/xlink" x="0px" y="0px"
	 viewBox="0 0 1000 1000" style="enable-background:new 0 0 1000 1000;" xml:space="preserve">
<style type="text/css">
	.st0{fill:#353535;}
</style>
<g>
	<circle class="st0" cx="308.9" cy="800.5" r="61.1"/>
	<circle class="st0" cx="859.3" cy="800.5" r="61.1"/>
	<path class="st0" d="M981.2,293.5c-1.4-2.6-7.3-8.2-10.1-9.4c-1.6-0.7-87.1-1-391.9-1.3l-389.8-0.4l-25.1-61.7
		c-13.8-34-25.9-63.1-26.9-64.7c-2.7-4.5-9.8-11.7-13.2-13.4c-1.7-0.9-4.7-2.2-6.8-3c-5-1.7-7.1-1.7-13.6,0.2
		c-11.5,3.4-25.8,12.4-36,22.7c-3.7,3.6-12.6,14.2-19.8,23.5c-8.3,10.8-16.2,20-21.8,25.6c-11.4,11.2-11.6,11.8-9.2,24
		c3.6,18.7,9.3,33.6,15.2,39.7c2.9,3,4.1,3.7,7.9,4.5c7.6,1.5,15.7-1.2,20.2-6.8c7.2-9.1,30.8-33.5,31.9-33.1
		c1,0.4,34.1,74.3,36.3,80.8c0.7,1.9,38.8,87.2,84.8,189.6l83.6,186.2l5.8,6.1l5.9,6.1l16.1,0.3l0,0H865c2.2-2.9,3.2-7.2,3.7-15
		c0.5-8.5,0.9-10.1,11.6-45.1c6.1-20,29.6-97.8,52.4-173c22.7-75.2,42.5-139.5,43.9-143.1c2.1-5.4,6.1-19.8,7.7-28.1
		C984.6,302.8,983.1,297.5,981.2,293.5z M876.3,415.5c0,0-0.1,0-0.3,0l-18.5,70.1c0.1,0,0.2,0,0.2,0c0.5,0.8-10.8,43.3-11.8,44.6
		c0,0-0.1,0.1-0.2,0.1l-18.6,70.4c0.2,0,0.4,0,0.4,0c0.8,1.2-10.8,43.6-12.2,44.6c-1,0.8-49.4,1-236.4,1
		c-129.3,0-235.6-0.3-236.1-0.6c-1-0.7-18.3-42.5-18.3-44.4c0-0.1,0.1-0.1,0.2-0.2l-28.7-70.6c0,0,0,0,0,0c-1.2-0.7-17-40-18.1-44.4
		L249,415.2c-0.3,0-0.4-0.1-0.4-0.1c-0.8-1.5-9.2-22.1-16-39.2c-4.9-12.2-8.9-22.6-8.9-23.1c0-1,33.2-1.1,334.3-1.1
		c278.8,0,334.3,0.2,334.7,1C893,353.9,877.3,414.6,876.3,415.5z"/>
</g>
</svg>
